<svg xmlns="http://www.w3.org/2000/svg" width="180" height="180" viewBox="0 0 180 180" fill="none">
  <title>Ícone AmorSaúde</title>
  <rect x="41" y="48" width="98" height="86" rx="14" fill="#68C4D3"/>
  <circle cx="90" cy="41" r="22" fill="#68C4D3"/>
  <path d="M59 49C62 62 74 70 90 70C106 70 118 62 121 49" stroke="#F5F5F5" stroke-width="6" stroke-linecap="round" stroke-linejoin="round"/>
  <path d="M90 57C89.5 56.6 88.8 56.1 88.1 55.6C79.8 49.3 74 44.7 74 37.9C74 33.1 77.7 29.8 82.4 29.8C85.3 29.8 87.9 31.1 89.7 33.2C91.5 31.1 94.1 29.8 97 29.8C101.7 29.8 105.4 33.1 105.4 37.9C105.4 44.7 99.6 49.3 91.3 55.6C90.6 56.1 89.9 56.6 89.4 57H90Z" fill="#D94A45"/>
  <rect x="86" y="34.2" width="8" height="16" rx="2.2" fill="#F5F5F5"/>
  <rect x="82" y="38.2" width="16" height="8" rx="2.2" fill="#F5F5F5"/>
  <circle cx="77" cy="84" r="5.3" fill="#F5F5F5"/>
  <circle cx="103" cy="84" r="5.3" fill="#F5F5F5"/>
  <path d="M72 101C76.5 106 82.7 108.8 90 108.8C97.3 108.8 103.5 106 108 101" stroke="#F5F5F5" stroke-width="5" stroke-linecap="round" stroke-linejoin="round"/>
</svg>
